<svg xmlns:dc="http://purl.org/dc/elements/1.1/" xmlns:cc="http://creativecommons.org/ns#" xmlns:rdf="http://www.w3.org/1999/02/22-rdf-syntax-ns#" xmlns:svg="http://www.w3.org/2000/svg" xmlns="http://www.w3.org/2000/svg" viewBox="100 90 620 600" width="65" height="68" xml:space="preserve" id="svg2" x="0px" y="0px" version="1.1"><defs id="defs6"></defs><g transform="matrix(1.3333333,0,0,-1.3333333,0,1056)" id="g10"><g transform="translate(194.2837,586.187)" id="g12"><path id="path14" style="fill:#fff;fill-opacity:1;fill-rule:evenodd;stroke:none" d="m 0,0 2.187,1.687 2.273,1.631 2.278,1.6 2.33,1.57 2.335,1.515 2.392,1.455 2.392,1.427 2.45,1.365 2.475,1.312 2.507,1.282 2.536,1.222 2.56,1.162 2.565,1.133 2.622,1.052 2.65,1.016 2.651,0.991 2.679,0.902 2.734,0.845 2.736,0.813 2.737,0.726 2.794,0.701 2.791,0.642 2.827,0.579 2.852,0.494 2.848,0.464 2.884,0.41 2.91,0.349 2.909,0.263 2.938,0.233 2.971,0.145 2.962,0.087 2.996,0.056 2.359,-0.028 2.388,-0.056 2.368,-0.12 2.367,-0.116 2.327,-0.201 2.331,-0.203 2.335,-0.265 2.301,-0.288 2.311,-0.35 2.302,-0.351 2.281,-0.434 2.245,-0.436 2.248,-0.498 2.249,-0.493 2.212,-0.552 2.216,-0.613 v -71.912 l 132.911,203.6 -91.66,-85.183 -2.303,0.99 -2.335,0.961 -2.33,0.929 -2.339,0.902 -2.355,0.874 -2.368,0.845 -2.355,0.814 -2.396,0.757 -2.393,0.758 -2.421,0.725 -2.388,0.669 -2.417,0.67 -2.454,0.613 -2.417,0.61 -2.445,0.551 -2.445,0.526 -2.479,0.497 -2.454,0.464 -2.478,0.438 -2.479,0.404 -2.474,0.381 -2.507,0.348 -2.479,0.322 -2.503,0.259 -2.507,0.233 -2.507,0.232 -2.502,0.178 -2.508,0.142 -2.507,0.117 -2.536,0.088 -2.507,0.029 -2.503,0.031 L 78.78,86.899 72.842,86.635 66.942,86.17 61.094,85.561 55.3,84.776 49.572,83.814 43.897,82.679 38.28,81.397 32.72,79.942 27.246,78.343 21.805,76.568 16.47,74.645 11.173,72.581 5.991,70.369 0.833,68.013 -4.21,65.508 l -4.953,-2.649 -4.9,-2.793 -4.78,-2.909 -4.694,-3.057 -4.608,-3.202 -4.522,-3.287 -4.411,-3.433 -4.317,-3.58 -4.238,-3.666 -4.087,-3.815 -4.005,-3.899 -3.89,-4.015 -3.771,-4.132 -3.66,-4.252 -3.541,-4.336 -3.431,-4.424 z m 218.802,-149.085 0.604,2.264 0.545,2.27 0.525,2.269 0.518,2.302 0.426,2.33 0.439,2.298 0.374,2.359 0.341,2.356 0.295,2.355 0.254,2.388 0.23,2.389 0.172,2.38 0.143,2.42 0.12,2.413 0.053,2.446 0.037,2.445 -0.066,2.996 -0.082,2.999 -0.147,2.963 -0.23,2.975 -0.259,2.938 -0.344,2.913 -0.407,2.909 -0.43,2.91 -0.513,2.852 -0.583,2.851 -0.636,2.824 -0.656,2.819 -0.747,2.767 -0.78,2.764 -0.862,2.733 -0.898,2.71 -0.948,2.704 -1.014,2.649 -1.034,2.649 -1.124,2.589 -1.154,2.592 -1.206,2.562 -1.239,2.526 -1.292,2.505 -1.358,2.447 -1.416,2.442 -1.436,2.389 -1.498,2.384 -1.522,2.329 -1.592,2.328 -1.613,2.272 -1.666,2.24 17.772,64.927 3.918,-3.463 3.804,-3.583 3.68,-3.665 3.632,-3.756 3.488,-3.839 3.394,-3.959 3.319,-4.043 3.193,-4.104 3.086,-4.22 2.962,-4.278 2.884,-4.393 2.738,-4.456 2.65,-4.538 2.503,-4.599 2.396,-4.684 2.27,-4.745 2.162,-4.83 2.015,-4.888 1.908,-4.978 1.785,-5.004 1.612,-5.093 1.523,-5.154 1.358,-5.178 1.239,-5.269 1.096,-5.294 0.944,-5.354 0.808,-5.417 0.693,-5.441 0.513,-5.498 0.374,-5.564 0.209,-5.552 0.086,-5.618 -0.033,-2.766 -0.053,-2.732 -0.091,-2.745 -0.143,-2.729 -0.172,-2.712 -0.197,-2.7 -0.234,-2.675 -0.259,-2.68 -0.32,-2.675 -0.341,-2.655 -0.38,-2.676 -0.399,-2.622 -0.46,-2.618 -0.492,-2.614 -0.517,-2.622 -0.521,-2.564 -0.603,-2.585 -0.607,-2.561 -0.632,-2.564 -0.689,-2.532 -0.727,-2.532 -0.743,-2.499 -0.746,-2.503 -0.813,-2.474 -0.833,-2.479 -0.862,-2.445 -0.923,-2.446 -0.919,-2.408 -0.956,-2.413 -1.01,-2.388 -1.005,-2.389 -1.043,-2.359 z m 57.668,-84.603 -38.633,-1.892 -3.418,-4.218 -3.548,-4.104 -3.653,-3.988 -3.746,-3.894 -3.861,-3.788 -3.944,-3.668 -4.066,-3.582 -4.144,-3.464 -4.264,-3.339 -4.324,-3.234 -4.432,-3.118 -4.526,-2.996 -4.613,-2.876 -4.661,-2.741 -4.789,-2.615 -4.833,-2.473 -4.929,-2.36 -4.977,-2.212 -5.075,-2.068 -5.13,-1.949 -5.207,-1.801 -5.248,-1.658 -5.326,-1.514 -5.383,-1.342 -5.446,-1.222 -5.502,-1.043 -5.556,-0.906 -5.589,-0.727 -5.679,-0.578 -5.676,-0.411 -5.764,-0.267 -5.757,-0.086 -2.766,0.033 -2.733,0.025 -2.708,0.119 -2.712,0.123 -2.709,0.168 -2.704,0.205 -2.679,0.234 -2.679,0.291 -2.676,0.316 -2.655,0.353 -2.618,0.377 -2.65,0.436 -2.622,0.438 -2.59,0.489 -2.597,0.529 -2.593,0.555 -2.561,0.607 -2.564,0.611 -2.537,0.673 -2.531,0.698 -2.508,0.726 -2.506,0.755 -2.479,0.788 -2.475,0.845 -2.478,0.842 -2.421,0.898 -2.449,0.906 -2.417,0.965 -2.393,0.981 -2.391,1.021 -2.36,1.051 -2.335,1.071 38.342,46.831 2.565,-0.82 2.618,-0.813 2.65,-0.722 2.65,-0.698 1.327,-0.32 1.353,-0.324 1.325,-0.295 1.355,-0.255 1.354,-0.3 1.35,-0.254 1.383,-0.234 1.358,-0.229 2.762,-0.444 2.766,-0.345 1.382,-0.175 1.383,-0.144 1.415,-0.152 1.379,-0.111 2.823,-0.21 2.827,-0.143 2.848,-0.09 2.881,-0.024 3.487,0.056 3.509,0.124 3.463,0.23 3.451,0.287 3.398,0.378 3.405,0.496 3.369,0.554 3.34,0.607 3.311,0.731 3.288,0.784 3.257,0.874 3.222,0.93 3.168,1.051 3.167,1.075 3.11,1.195 3.116,1.226 3.023,1.338 3.024,1.362 2.971,1.457 2.934,1.539 2.884,1.571 2.853,1.662 2.79,1.744 2.766,1.781 2.708,1.859 2.679,1.891 2.622,1.978 2.589,2.04 2.507,2.097 2.479,2.149 2.446,2.212 2.363,2.266 -24.341,57.659 z m -233.233,54.771 -60.291,-28.227 -2.162,2.38 -2.076,2.421 -2.044,2.474 -1.986,2.524 -1.904,2.568 -1.871,2.618 -1.814,2.647 -1.727,2.708 -1.699,2.733 -1.645,2.799 -1.556,2.819 -1.497,2.876 -1.441,2.917 -1.354,2.934 -1.325,2.976 -1.239,3.02 -1.149,3.032 -1.124,3.081 -1.035,3.111 -0.956,3.176 -0.89,3.172 -0.808,3.2 -0.751,3.229 -0.657,3.292 -0.607,3.286 -0.517,3.32 -0.431,3.348 -0.378,3.373 -0.287,3.377 -0.201,3.431 -0.115,3.438 -0.061,3.463 0.032,2.852 0.087,2.852 0.057,1.428 0.086,1.424 0.087,1.395 0.115,1.428 0.258,2.79 0.287,2.799 0.378,2.794 0.402,2.765 0.459,2.733 0.522,2.733 0.574,2.708 0.632,2.678 0.665,2.676 0.718,2.651 0.779,2.616 0.805,2.591 62.51,1.455 -120.322,78.079 15.211,-32.938 -1.039,-2.041 -0.976,-2.036 -0.981,-2.067 -0.952,-2.036 -0.919,-2.096 -0.894,-2.068 -0.866,-2.123 -0.866,-2.097 -0.833,-2.123 -0.804,-2.153 -0.78,-2.123 -0.776,-2.157 -0.722,-2.18 -0.718,-2.183 -0.693,-2.184 -0.661,-2.212 -0.488,-1.688 -0.464,-1.687 -0.464,-1.719 -0.459,-1.686 -0.431,-1.716 -0.402,-1.719 -0.406,-1.715 -0.374,-1.719 -0.377,-1.743 -0.373,-1.747 -0.345,-1.748 -0.316,-1.752 -0.32,-1.738 -0.283,-1.746 -0.291,-1.781 -0.259,-1.772 -0.255,-1.769 -0.234,-1.781 -0.201,-1.801 -0.2,-1.781 -0.206,-1.805 -0.168,-1.802 -0.148,-1.801 -0.143,-1.805 -0.115,-1.806 -0.115,-1.835 -0.086,-1.801 -0.058,-1.834 -0.086,-1.838 -0.029,-1.826 -0.032,-1.834 v -1.835 l 0.09,-5.941 0.263,-5.876 0.398,-5.815 0.607,-5.798 0.747,-5.728 0.923,-5.675 1.067,-5.618 1.21,-5.564 1.379,-5.498 1.53,-5.441 1.67,-5.388 1.843,-5.318 1.957,-5.244 2.105,-5.178 2.245,-5.097 2.392,-5.002 2.507,-4.944 2.647,-4.862 2.77,-4.773 2.909,-4.685 3.024,-4.601 3.168,-4.513 3.282,-4.415 3.369,-4.313 3.517,-4.214 3.603,-4.137 3.742,-4.016 3.832,-3.903 3.944,-3.803 4.033,-3.697 4.148,-3.583 4.235,-3.463 4.58,-23.34 z"></path></g></g></svg>